<?xml version="1.0" standalone="no"?>
<!DOCTYPE svg PUBLIC "-//W3C//DTD SVG 20010904//EN"
 "http://www.w3.org/TR/2001/REC-SVG-20010904/DTD/svg10.dtd">
<svg version="1.0" xmlns="http://www.w3.org/2000/svg"
 width="800.000000pt" height="1043.000000pt" viewBox="0 0 800.000000 1043.000000"
 preserveAspectRatio="xMidYMid meet">

<g transform="translate(0.000000,1043.000000) scale(0.100000,-0.100000)"
fill="#000000" stroke="none">
<path d="M0 7220 c0 -3200 0 -3210 20 -3210 11 0 20 -7 20 -15 0 -8 9 -15 20
-15 25 0 27 37 3 43 -14 4 -12 5 5 6 16 1 22 -5 22 -21 1 -31 23 -58 48 -58
11 0 27 -7 36 -15 16 -16 36 -20 36 -7 0 5 -12 13 -28 20 l-27 12 30 -7 c17
-3 40 -6 53 -6 15 1 22 -5 22 -18 0 -27 13 -24 27 6 9 21 8 27 -5 35 -15 8
-15 9 -1 10 8 0 24 -7 35 -15 10 -8 31 -15 46 -15 15 0 29 -4 32 -9 6 -9 -36
-31 -59 -31 -18 0 -20 16 -3 23 10 4 10 6 0 6 -16 1 -28 -27 -16 -39 5 -5 30
-2 59 7 60 19 63 22 46 32 -22 14 34 22 82 12 23 -6 52 -9 62 -7 11 2 14 1 8
-1 -7 -3 -13 -17 -12 -31 0 -23 2 -24 8 -8 4 11 19 20 34 22 15 1 37 6 49 10
20 6 21 5 10 -8 -7 -9 -10 -22 -6 -31 3 -10 -1 -17 -13 -20 -12 -3 -9 -5 10
-6 17 -1 26 4 25 12 -2 7 9 13 25 15 16 2 31 10 34 18 7 18 23 18 23 0 0 -8
-15 -20 -33 -26 -22 -9 -27 -14 -16 -17 10 -2 19 -14 23 -25 5 -21 6 -21 24
-5 23 21 32 13 33 -27 1 -21 3 -25 6 -11 3 11 11 34 18 50 7 17 15 38 19 48 7
21 20 22 40 2 8 -8 22 -12 30 -9 12 5 16 0 16 -20 0 -27 9 -33 25 -17 16 14
83 23 90 11 3 -5 13 -10 21 -10 8 0 13 3 10 8 -2 4 2 18 10 32 l13 25 1 -29
c0 -22 4 -27 17 -24 16 4 18 -1 14 -39 l-3 -43 38 2 c35 1 36 2 8 5 -26 3 -31
8 -31 34 0 34 26 41 34 9 6 -23 28 -22 28 1 1 13 6 13 48 2 13 -4 17 1 18 23
l1 29 11 -27 c10 -26 27 -38 27 -20 0 10 82 32 120 32 20 0 30 -5 30 -15 0 -8
-4 -15 -10 -15 -5 0 -10 -9 -10 -20 0 -29 18 -24 38 10 21 36 42 39 42 6 0
-27 15 -42 25 -26 4 6 13 5 27 -3 16 -9 22 -9 25 0 3 9 10 9 29 1 17 -8 28 -8
32 -2 11 16 41 24 48 13 3 -5 0 -16 -6 -24 -10 -12 -9 -15 9 -15 11 0 21 5 21
11 0 7 13 9 38 5 33 -6 35 -5 20 7 -17 13 -25 37 -13 37 14 0 94 -57 89 -63
-11 -10 19 -8 36 3 11 7 9 11 -14 19 -27 11 -56 34 -56 45 0 3 9 6 20 6 11 0
20 -6 20 -13 0 -6 15 -19 32 -26 18 -8 40 -24 49 -34 13 -17 18 -18 37 -6 19
12 25 12 44 0 16 -10 23 -10 26 -2 2 6 10 11 18 11 8 0 14 4 14 10 0 13 62 1
76 -16 6 -7 16 -9 23 -4 11 6 11 9 0 13 -11 3 -10 6 3 12 23 9 51 -18 36 -33
-15 -15 -9 -20 30 -28 22 -5 32 -3 32 6 0 7 -8 10 -20 7 -13 -3 -20 0 -20 9 0
8 10 14 24 14 19 0 23 4 19 20 -4 14 0 20 12 20 11 0 15 -5 11 -15 -8 -22 11
-65 29 -65 8 0 15 5 15 10 0 6 -7 10 -15 10 -8 0 -15 7 -15 15 0 13 4 14 20 5
14 -7 20 -7 20 0 0 5 8 10 18 9 10 0 12 -3 5 -6 -18 -7 -16 -23 2 -23 8 0 15
7 15 15 0 10 8 15 23 14 12 -1 41 -1 65 -1 33 2 42 6 42 20 1 16 2 16 13 0 7
-9 24 -18 37 -21 14 -2 -3 -5 -37 -6 -78 -1 -82 -16 -8 -24 72 -7 85 -16 49
-33 -29 -12 -28 -12 21 -14 28 -1 67 -2 87 -4 35 -3 37 -2 31 25 -5 24 -3 27
16 22 16 -4 21 -1 21 15 0 16 17 32 34 32 9 0 -3 -43 -14 -50 -7 -4 -14 -21
-16 -37 l-3 -28 20 27 c12 16 30 28 42 28 21 0 62 20 43 20 -5 0 -2 7 5 16 11
14 11 18 -4 29 -9 7 -17 18 -17 25 0 9 5 8 19 -4 10 -9 25 -14 35 -10 10 4 16
1 16 -9 0 -9 -9 -19 -20 -22 -20 -6 -28 -35 -10 -35 6 0 10 7 10 15 0 18 1 18
36 0 31 -16 40 -13 28 7 -5 7 -7 21 -5 31 1 12 -5 20 -18 24 -12 3 -18 10 -14
20 3 8 9 10 12 5 10 -15 49 -24 56 -12 3 5 15 10 25 10 10 0 21 6 24 13 3 6 3
-37 0 -98 -8 -182 -13 -256 -24 -333 -6 -40 -10 -85 -9 -100 3 -85 43 196 59
418 6 80 17 246 25 370 20 292 32 444 50 610 8 74 24 235 35 357 12 122 26
235 31 250 12 36 3 -183 -16 -417 -8 -96 -19 -242 -24 -325 -11 -168 -46 -607
-61 -760 -5 -55 -12 -145 -15 -200 -8 -129 -33 -418 -41 -473 -7 -45 -26 -62
-52 -46 -10 7 -51 0 -126 -19 -61 -16 -136 -32 -166 -35 -51 -7 -55 -9 -61
-37 -4 -16 -7 -60 -8 -96 0 -36 -7 -72 -13 -81 -7 -9 -40 -23 -73 -30 l-60
-15 -52 -434 c-50 -422 -71 -598 -79 -649 -2 -14 -21 -163 -43 -332 -48 -369
-46 -360 -75 -352 -37 9 -74 -13 -97 -57 l-21 -42 31 6 c46 9 93 -3 99 -25 3
-11 10 -17 18 -14 10 4 13 -3 11 -26 -2 -26 2 -33 23 -38 17 -4 25 -13 25 -27
0 -12 3 -25 7 -29 12 -11 -1 -51 -47 -149 -23 -49 -45 -98 -49 -108 -7 -20
-22 -19 -124 10 -59 16 -61 37 -2 31 31 -3 36 -1 32 14 -4 17 6 22 35 19 6 -1
20 10 30 25 10 14 30 40 45 58 15 18 25 36 22 39 -4 3 -34 3 -69 0 -38 -3 -76
-1 -99 7 -34 11 -37 14 -31 40 4 16 1 38 -5 50 -13 23 -6 52 17 75 26 27 8 27
-30 1 -36 -24 -37 -25 -50 -6 -9 13 -20 17 -35 13 -27 -7 -29 -33 -2 -40 18
-5 20 -30 4 -80 -6 -21 -61 -16 -67 6 -2 11 -22 28 -43 39 -22 11 -45 30 -52
41 -21 35 -92 20 -92 -19 0 -10 -16 -32 -36 -47 -20 -15 -44 -35 -53 -43 -14
-13 -50 -18 -82 -11 -10 2 -17 51 -9 56 4 2 15 -4 25 -15 25 -27 35 -16 35 36
0 30 -5 46 -15 50 -24 10 -67 -5 -72 -26 -3 -11 -18 -21 -40 -25 -32 -6 -35
-9 -30 -33 3 -15 9 -35 12 -44 5 -13 2 -15 -14 -11 -17 4 -21 1 -21 -18 0 -18
11 -30 46 -49 70 -37 92 -57 99 -93 4 -17 16 -39 27 -47 32 -26 52 -150 24
-150 -8 0 -16 -7 -20 -15 -3 -8 -12 -15 -20 -15 -9 0 -13 -6 -10 -14 9 -23
-24 -63 -65 -79 -51 -21 -62 -49 -50 -134 5 -37 12 -80 15 -96 l6 -27 202 0
203 0 18 43 c10 23 29 65 42 94 12 28 23 54 23 56 0 15 93 97 110 97 14 0 20
7 21 23 1 16 4 12 11 -13 5 -19 14 -39 19 -44 16 -18 10 -62 -21 -137 -16 -41
-34 -82 -40 -91 -5 -10 -10 -20 -10 -23 0 -3 75 -5 166 -5 164 0 166 0 161 21
-4 15 -2 19 9 15 8 -3 14 0 14 6 0 6 3 9 6 6 3 -4 1 -16 -6 -27 -11 -21 -10
-21 160 -21 168 0 171 0 180 23 l9 22 0 -22 1 -23 838 0 837 0 18 31 c12 22
14 35 7 44 -12 14 27 25 91 25 22 0 39 4 39 9 0 14 -28 21 -60 15 -53 -11 -97
3 -108 35 -8 23 -7 30 9 42 25 18 24 34 -6 73 -25 33 -31 57 -18 70 5 4 13
-12 20 -36 l13 -43 -5 40 -4 40 44 -3 c40 -4 45 -2 45 17 0 11 -10 26 -22 32
-50 27 -65 74 -20 63 15 -4 28 -10 30 -14 1 -4 14 -5 29 -2 l26 5 -5 -61 -4
-62 35 -6 c78 -12 90 -16 95 -29 7 -19 -2 -23 -53 -26 -54 -4 -59 -12 -15 -28
22 -8 36 -21 40 -37 3 -13 10 -24 15 -24 5 0 9 -9 9 -20 0 -11 -7 -20 -15 -20
-8 0 -15 -7 -15 -15 0 -9 9 -15 21 -15 18 0 19 -2 9 -15 -7 -8 -21 -15 -31
-15 -19 0 -35 -17 -25 -27 5 -5 24 -8 69 -12 9 0 17 -8 17 -16 0 -25 26 -17
39 11 11 26 12 26 26 8 7 -11 17 -19 22 -20 4 0 15 -4 23 -8 9 -3 96 -5 195
-4 l178 3 12 58 c6 31 9 59 7 62 -3 3 2 5 11 5 10 0 17 -8 17 -18 0 -10 7 -39
16 -65 l16 -47 403 0 403 0 7 29 c12 58 75 82 75 29 0 -13 7 -31 14 -41 12
-16 30 -17 179 -15 l165 3 -37 65 c-21 36 -44 75 -52 88 -21 33 -3 52 74 84
36 14 90 42 121 62 31 19 67 38 81 42 14 3 35 18 48 33 12 15 30 30 40 34 27
10 21 37 -8 37 -14 0 -25 5 -25 10 0 6 18 10 40 10 37 0 40 -2 40 -26 0 -26 1
-26 53 -19 28 4 73 8 99 9 27 0 48 4 48 7 0 4 10 6 22 5 31 -1 60 -59 53 -106
-3 -19 1 -104 7 -187 l12 -153 247 0 248 0 -10 32 c-5 18 -9 44 -8 58 0 17 7
8 22 -32 l21 -58 43 0 c40 0 43 2 33 19 -6 12 -7 28 -1 43 10 25 17 15 23 -32
l3 -25 121 -2 122 -1 -1 98 c0 61 -4 98 -10 97 -12 -2 -49 92 -41 105 6 9 -28
48 -41 48 -3 0 -5 -16 -5 -36 0 -33 2 -35 17 -23 15 12 16 12 10 -3 -3 -10 -2
-18 3 -18 6 0 10 -8 10 -17 0 -15 -2 -16 -10 -3 -7 11 -8 5 -4 -20 l6 -35 -22
25 c-18 21 -21 22 -15 5 7 -20 25 -130 24 -150 0 -19 -22 28 -35 74 -7 27 -13
37 -13 24 -1 -31 -17 -29 -25 3 -4 15 -9 24 -12 22 -2 -3 0 -17 6 -32 5 -15 7
-32 4 -38 -10 -16 -34 20 -34 49 0 31 -27 83 -43 83 -9 0 -11 13 -9 41 5 44
-6 59 -45 59 -12 0 -24 8 -26 17 -3 10 -5 1 -6 -19 0 -21 -5 -38 -10 -38 -24
0 -28 114 -6 156 8 16 15 23 15 17 0 -7 5 -13 10 -13 6 0 10 7 10 15 0 31 19
13 36 -36 24 -67 42 -81 42 -34 0 46 5 51 34 30 13 -10 16 -15 6 -12 -25 9
-30 -5 -8 -20 24 -17 27 -35 3 -26 -14 5 -15 1 -10 -27 10 -49 26 -65 43 -43
12 16 13 15 14 -15 0 -18 7 -40 15 -49 14 -14 16 -13 11 8 -3 13 -7 43 -10 66
-3 23 -9 48 -12 57 -3 9 -1 16 5 16 6 0 11 -9 11 -20 0 -11 5 -20 10 -20 19 0
10 45 -21 107 -29 59 -33 99 -8 91 6 -2 22 -28 35 -58 21 -49 30 -53 25 -10
-3 21 24 -18 34 -48 4 -14 13 -22 23 -20 15 3 17 32 20 290 2 253 0 287 -13
282 -8 -3 -36 1 -62 9 -27 9 -88 26 -138 38 -49 12 -102 28 -117 35 -32 17
-38 17 -38 4 0 -6 11 -15 24 -20 38 -14 55 -48 48 -94 -7 -36 -8 -37 -24 -20
-9 11 -21 38 -27 60 -6 23 -18 47 -27 54 -8 7 -13 19 -10 27 9 22 -32 15 -44
-7 -12 -22 -32 -18 -24 5 6 14 -39 60 -59 60 -7 0 -18 4 -26 9 -8 5 -16 4 -22
-5 -6 -11 -11 -11 -21 -1 -6 6 -20 12 -30 12 -10 0 -18 4 -18 8 0 12 83 32
107 26 14 -4 25 2 37 21 9 14 21 23 27 20 15 -10 39 21 39 49 0 16 6 26 15 26
19 0 19 4 0 40 -10 19 -11 30 -5 30 6 0 8 6 4 13 -5 8 -4 9 4 2 5 -5 12 -19
14 -29 1 -11 9 -21 17 -24 10 -3 12 0 6 14 -4 11 -11 34 -15 52 -5 19 -15 41
-24 51 -9 10 -13 20 -10 23 12 13 -29 77 -57 88 -22 10 -27 16 -19 25 8 10 0
22 -33 49 -24 20 -47 36 -51 36 -4 0 -19 9 -34 20 -47 35 -127 50 -220 43 -94
-7 -107 -15 -204 -117 -47 -50 -60 -72 -82 -141 -18 -56 -26 -103 -26 -153 0
-56 -3 -72 -14 -72 -21 0 -30 -20 -17 -33 12 -12 15 -50 4 -60 -3 -4 -12 -2
-20 5 -11 9 -13 -2 -8 -67 2 -43 7 -87 11 -97 5 -16 -1 -18 -44 -18 -29 0 -73
10 -110 25 -69 28 -110 32 -118 11 -3 -8 -15 -11 -32 -9 -15 3 -64 7 -110 9
-45 1 -86 5 -90 7 -4 2 -29 10 -55 17 -39 10 -62 11 -118 1 -50 -9 -73 -10
-83 -2 -9 8 -22 1 -51 -29 -22 -22 -43 -40 -47 -40 -4 0 -17 -9 -27 -19 -11
-11 -41 -23 -66 -27 -40 -5 -55 -3 -94 18 -25 14 -68 30 -96 36 -27 6 -83 25
-124 41 -41 17 -91 31 -112 31 -64 0 -86 14 -93 57 -8 49 -52 671 -66 913 -22
415 -43 715 -49 722 -3 4 -33 13 -66 20 l-60 13 -2 114 c-1 62 -4 115 -7 119
-4 3 -28 5 -54 4 -26 -2 -74 5 -106 13 -33 9 -76 18 -95 21 -20 2 -63 9 -96
14 -33 5 -158 11 -277 13 -152 3 -222 8 -233 17 -11 9 -17 9 -28 -2 -12 -11
-33 -12 -106 -6 -51 4 -101 12 -111 18 -13 7 -19 6 -24 -5 -4 -11 -23 -15 -78
-15 -72 1 -73 1 -101 37 -26 35 -27 35 -27 11 0 -49 -9 -51 -292 -44 -145 3
-293 6 -330 6 -67 0 -68 0 -68 28 0 15 7 70 14 122 21 138 54 532 105 1275 11
160 26 360 32 445 6 85 16 236 22 334 8 114 16 181 23 183 6 2 20 -13 30 -34
16 -33 19 -59 17 -188 l-1 -150 14 159 c7 87 15 161 18 164 14 13 40 -14 62
-64 l25 -57 -15 -271 c-19 -329 -36 -595 -41 -656 -9 -107 -17 -315 -12 -310
7 7 61 821 72 1090 9 222 16 240 70 185 23 -22 25 -33 26 -117 l2 -93 7 101
c4 56 10 107 14 113 8 13 66 -13 66 -30 0 -5 7 -26 15 -46 14 -34 16 -35 29
-18 12 16 18 17 39 8 15 -7 35 -30 46 -51 22 -43 36 -57 69 -65 14 -3 22 -1
22 8 0 7 6 18 14 24 22 19 74 -7 102 -50 25 -41 48 -50 58 -24 9 24 33 17 70
-20 41 -41 47 -42 71 -15 11 12 13 20 6 20 -53 0 -847 411 -921 477 -11 10
-25 224 -18 298 3 44 7 117 7 163 1 77 3 85 29 108 15 15 46 37 70 51 24 14
41 27 39 29 -2 2 -35 -3 -73 -11 -38 -8 -73 -15 -78 -15 -12 0 1 161 14 174
12 12 112 -18 130 -39 17 -20 30 -19 30 3 0 30 -34 53 -118 81 l-77 26 2 90
c1 89 11 181 40 365 8 52 18 149 23 215 5 66 13 172 19 235 19 207 20 222 15
217 -3 -2 -25 -143 -49 -313 -55 -377 -105 -675 -117 -691 -5 -7 -19 -8 -36
-4 -33 9 -34 -35 19 436 54 484 54 475 41 475 -6 0 -12 -6 -15 -12 -11 -30
-18 63 -8 98 6 22 14 98 18 171 3 72 9 137 13 143 8 13 80 -17 122 -51 24 -20
28 -20 49 -5 32 22 75 20 97 -4 9 -11 35 -40 57 -65 22 -26 58 -66 80 -89 22
-23 55 -59 73 -79 19 -20 38 -37 44 -37 5 0 -3 13 -19 29 -15 16 -38 42 -50
57 -13 16 -46 58 -74 93 -47 60 -50 66 -33 78 12 8 50 13 108 13 127 0 273 27
253 46 -2 2 -46 6 -98 8 -93 4 -136 10 -174 26 -43 17 -128 40 -151 40 -37 0
-102 29 -184 83 -41 27 -84 53 -95 58 -11 5 -51 26 -90 48 -38 21 -114 61
-168 89 -53 28 -114 63 -134 77 -21 14 -41 25 -46 25 -5 0 -23 11 -40 24 -37
27 -117 69 -123 64 -2 -2 13 -22 32 -43 19 -22 61 -78 91 -125 101 -154 116
-175 159 -221 43 -47 88 -123 82 -139 -3 -10 -179 92 -248 145 -25 18 -49 34
-53 34 -5 1 -28 15 -52 31 -24 17 -47 30 -50 30 -4 0 -59 35 -121 78 -63 42
-129 86 -147 96 l-32 19 35 -37 c19 -21 55 -50 80 -66 25 -16 51 -35 59 -41 7
-7 28 -17 45 -23 42 -15 160 -95 221 -151 28 -24 97 -68 155 -97 86 -43 111
-61 132 -94 47 -71 47 -74 -11 -74 -61 0 -160 30 -253 76 -37 19 -100 47 -140
63 -138 55 -392 182 -514 257 -67 40 -126 74 -130 74 -17 0 56 -65 141 -126
140 -101 288 -218 292 -231 3 -7 -9 -14 -29 -17 -160 -22 -203 -27 -268 -26
-66 0 -77 3 -95 24 -224 263 -340 416 -441 582 -8 12 -7 0 2 -35 7 -29 12 -57
9 -60 -4 -8 -398 -7 -555 1 -147 7 -248 27 -255 49 -4 11 -18 19 -38 21 -26 2
-32 7 -30 26 2 16 -2 22 -17 22 -29 0 -34 19 -8 29 13 5 30 16 37 25 18 22
186 23 227 1 36 -19 72 -19 115 -1 57 24 124 19 161 -12 17 -15 29 -22 27 -17
-32 71 -30 70 -139 79 -78 7 -140 23 -140 37 0 6 58 8 158 5 173 -5 228 -19
306 -79 45 -35 112 -52 120 -30 6 15 85 10 161 -9 41 -11 390 -13 406 -2 5 3
104 9 219 13 138 5 215 12 222 19 7 7 21 12 33 12 11 0 49 14 85 32 57 28 79
32 190 39 72 5 167 19 225 33 119 29 247 48 313 45 68 -2 201 11 242 24 19 7
78 12 130 13 52 0 145 4 207 9 123 9 119 7 177 89 17 24 51 69 74 101 42 55
50 84 15 53 -10 -9 -28 -21 -41 -27 -20 -11 -26 -8 -56 24 -27 28 -41 35 -71
35 -39 0 -74 29 -75 61 0 25 76 89 105 89 26 0 33 14 14 26 -25 15 16 22 44 8
16 -9 31 -13 34 -10 9 9 -19 37 -50 49 l-29 12 23 29 23 29 -36 31 -35 31 7
65 c4 36 5 70 3 77 -7 18 -67 35 -110 31 -31 -2 -38 1 -42 17 -5 28 26 79 62
100 47 28 13 32 -37 5 l-41 -23 19 22 c11 12 48 35 83 52 56 27 71 30 131 26
116 -7 191 -64 233 -177 22 -59 36 -277 41 -655 l3 -179 130 -18 c72 -9 150
-17 175 -17 71 -1 323 -66 415 -106 17 -8 137 -33 267 -56 192 -35 241 -41
260 -31 46 23 283 44 412 37 137 -8 209 1 366 44 84 24 122 29 189 27 54 -2
86 -7 89 -15 6 -18 60 -43 67 -31 8 13 -13 40 -30 40 -26 0 -24 39 3 59 60 42
136 72 205 81 39 5 88 14 107 19 53 14 170 23 170 13 0 -5 -39 -17 -87 -26
-105 -21 -181 -44 -189 -57 -10 -16 68 -43 131 -44 53 -2 64 1 90 25 17 16 46
30 65 33 198 29 232 31 244 15 7 -9 23 -18 36 -20 14 -1 26 -10 28 -19 2 -13
-10 -17 -60 -23 -34 -3 -66 -10 -71 -15 -5 -5 11 -7 37 -4 37 5 46 3 46 -10 0
-11 -15 -17 -50 -22 -50 -7 -69 -18 -50 -30 19 -12 10 -23 -22 -30 -18 -3 -69
-17 -113 -30 -117 -35 -185 -45 -328 -51 -106 -5 -137 -3 -180 12 -29 10 -56
22 -61 26 -16 13 -27 9 -24 -9 2 -12 -6 -19 -28 -23 -17 -4 -44 -16 -60 -26
-16 -11 -38 -25 -49 -30 -11 -6 -32 -31 -46 -55 -29 -49 -26 -83 14 -148 18
-30 19 -37 7 -70 -14 -42 -78 -156 -106 -190 -66 -81 -160 -181 -169 -181 -24
0 -48 29 -54 66 -6 36 -9 39 -46 46 -22 5 -134 9 -250 11 -164 2 -215 6 -233
17 -20 14 -31 12 -117 -18 -53 -17 -153 -56 -223 -85 -121 -51 -220 -85 -362
-124 l-65 -19 0 -109 c0 -137 14 -692 20 -840 9 -191 25 -1187 19 -1197 -3 -5
-21 -6 -39 -2 -26 5 -45 0 -85 -23 -50 -27 -52 -27 -64 -9 -6 11 -24 34 -40
53 -27 31 -31 33 -97 33 -38 0 -101 6 -140 12 -65 11 -75 16 -103 51 -26 32
-31 36 -37 20 -10 -30 7 -79 42 -122 l34 -40 20 24 c12 14 35 26 60 29 157 23
190 16 235 -50 30 -43 31 -43 77 -37 36 5 47 3 55 -10 5 -10 16 -17 25 -17 13
0 14 -8 9 -42 -4 -24 -7 -192 -6 -374 l1 -331 -48 12 c-45 11 -49 15 -60 56
-11 41 -11 37 -12 -66 -1 -83 3 -116 14 -132 12 -17 17 -70 22 -235 5 -117 9
-198 11 -180 2 17 7 32 12 32 5 0 11 12 13 28 2 15 3 6 2 -20 -1 -27 2 -48 6
-48 5 0 9 -29 9 -65 0 -52 4 -69 20 -85 24 -24 25 -30 5 -30 -20 0 -19 -6 10
-44 26 -34 32 -56 16 -56 -6 0 -9 -9 -8 -20 2 -24 17 -27 17 -4 0 27 25 9 28
-21 3 -21 6 -25 13 -14 6 10 10 6 15 -18 7 -37 34 -67 34 -39 0 9 8 16 18 16
14 0 18 -8 18 -33 0 -19 6 -41 14 -49 13 -14 17 -13 32 4 18 21 49 21 56 -1 3
-10 -2 -11 -18 -6 -15 5 -26 2 -31 -6 -15 -23 -10 -29 21 -29 19 0 30 -5 30
-14 0 -8 5 -18 12 -22 7 -4 8 -3 4 4 -15 24 19 11 41 -15 18 -22 24 -25 32
-14 7 11 10 11 17 0 4 -7 3 -14 -4 -17 -7 -2 -12 -11 -12 -20 1 -15 2 -15 14
1 12 16 23 17 75 11 58 -6 76 -24 25 -24 -26 0 -61 -26 -50 -37 3 -4 12 1 19
11 7 9 21 16 32 15 11 -1 44 -1 73 -1 45 2 52 5 52 22 0 11 6 20 14 20 7 0 16
-9 19 -20 5 -20 37 -29 37 -10 0 5 23 1 52 -10 28 -10 55 -17 60 -14 11 7 -60
44 -84 44 -10 0 -18 7 -18 15 0 19 39 20 46 1 3 -7 23 -16 45 -20 21 -3 39
-11 39 -16 0 -14 27 -12 33 3 4 9 6 9 6 0 1 -17 41 -17 41 -1 0 7 7 2 16 -10
8 -12 22 -22 30 -22 20 0 18 28 -3 33 -10 3 -1 5 20 6 20 0 37 -4 37 -9 0 -17
70 -93 78 -85 2 2 -3 18 -12 35 -13 27 -13 34 -1 46 18 19 39 18 31 -1 -3 -10
1 -15 13 -15 14 0 18 5 14 20 -3 11 0 27 7 35 11 14 15 14 31 -1 18 -16 20
-16 37 -1 19 17 52 23 52 9 0 -17 -42 -43 -61 -37 -10 4 -19 2 -19 -3 0 -13
75 -26 90 -17 7 4 18 -3 27 -15 15 -21 15 -21 29 -2 15 22 64 19 64 -4 0 -8 7
-14 15 -14 9 0 12 6 9 15 -4 10 0 15 11 15 11 0 15 -5 11 -15 -3 -9 0 -15 8
-15 8 0 13 8 12 18 -1 12 5 16 23 14 17 -3 21 0 15 10 -4 7 8 -2 26 -20 l34
-33 10 23 c5 13 9 30 8 38 -1 10 0 11 4 3 3 -7 13 -13 22 -13 16 -1 16 -2 0
-14 -16 -12 -16 -14 8 -25 14 -6 23 -7 19 -2 -9 15 36 42 51 30 8 -7 14 -7 19
0 3 6 17 10 30 9 19 -2 24 -7 19 -20 -4 -14 0 -18 20 -18 13 0 31 -3 40 -6 10
-4 16 -1 16 9 0 10 -7 13 -20 10 -11 -3 -20 0 -20 6 0 17 47 13 54 -4 3 -8 15
-14 28 -12 19 2 22 -2 20 -20 -2 -17 2 -23 16 -23 11 0 22 -7 26 -15 7 -19 26
-20 26 -1 0 10 12 13 48 11 36 -3 49 1 55 13 4 10 5 3 2 -16 -3 -24 -1 -32 8
-29 6 2 12 10 12 18 0 18 30 30 52 22 12 -5 15 -2 10 10 -3 9 -2 17 3 17 12 0
12 -2 1 -57 -5 -24 -7 -43 -5 -43 2 0 15 11 29 24 15 14 32 23 40 20 7 -3 15
5 19 20 6 25 36 37 36 15 0 -5 -4 -7 -10 -4 -11 7 -13 -6 -4 -29 9 -23 34 -20
34 4 0 11 5 20 10 20 6 0 10 -5 10 -11 0 -6 6 -9 14 -6 7 3 30 -6 50 -19 35
-24 47 -44 26 -44 -5 0 -10 -5 -10 -11 0 -6 8 -9 18 -7 9 2 16 11 14 20 -3 20
13 32 30 22 7 -4 31 -7 55 -5 46 3 57 -11 23 -29 -23 -12 -27 -30 -6 -30 8 0
16 -6 19 -13 2 -6 2 0 0 16 -3 18 0 29 11 33 9 3 13 10 10 15 -3 5 5 9 17 9
18 0 19 -3 9 -15 -6 -8 -9 -19 -5 -25 9 -14 45 22 45 45 0 11 11 15 39 15 22
0 43 4 46 10 3 5 17 10 31 10 13 0 24 5 24 10 0 6 6 10 14 10 9 0 13 -9 11
-25 -3 -29 11 -43 28 -26 8 8 8 11 0 11 -6 0 -9 9 -6 20 4 14 14 20 34 20 18
0 27 -5 25 -13 -1 -6 -1 -9 1 -4 3 4 15 7 28 7 13 0 28 6 32 13 10 17 43 30
43 17 0 -6 -7 -10 -15 -10 -8 0 -15 -4 -15 -8 0 -5 -11 -15 -25 -22 -30 -16
-33 -30 -6 -30 10 0 21 -7 25 -15 7 -19 26 -19 26 0 0 8 -7 15 -15 15 -21 0
-19 16 3 25 56 23 72 24 72 4 0 -11 -7 -19 -17 -20 -13 0 -12 -3 5 -10 13 -5
28 -7 32 -4 18 11 60 -7 60 -26 0 -10 5 -19 11 -19 5 0 8 4 5 9 -7 10 31 61
45 61 5 0 9 -7 9 -15 0 -8 -7 -15 -16 -15 -20 0 -13 -24 9 -28 13 -3 17 4 17
30 0 19 -5 39 -12 46 -9 9 -9 12 0 12 9 0 12 789 12 3520 l0 3520 -4000 0
-4000 0 0 -3210z m3965 2106 c11 -8 16 -19 12 -30 -8 -21 -26 -20 -56 3 -41
31 2 58 44 27z m-845 -1576 l-7 -75 -1 85 c-1 46 2 80 6 75 5 -6 5 -44 2 -85z
m97 -2372 c-3 -8 -6 -5 -6 6 -1 11 2 17 5 13 3 -3 4 -12 1 -19z m1570 -1050
c-3 -8 -6 -5 -6 6 -1 11 2 17 5 13 3 -3 4 -12 1 -19z m10 -100 c-3 -8 -6 -5
-6 6 -1 11 2 17 5 13 3 -3 4 -12 1 -19z m-4352 -238 c24 0 47 -4 50 -10 4 -6
-13 -10 -43 -10 -51 0 -64 10 -61 48 1 10 4 8 6 -5 4 -20 11 -23 48 -23z
m-195 21 c0 -4 -11 -6 -25 -3 -14 2 -25 6 -25 8 0 2 11 4 25 4 14 0 25 -4 25
-9z m120 -21 c0 -11 -4 -20 -10 -20 -5 0 -10 9 -10 20 0 11 5 20 10 20 6 0 10
-9 10 -20z m214 -12 c16 -11 0 -21 -23 -13 -17 5 -19 9 -8 26 8 13 13 15 16 7
2 -7 9 -16 15 -20z m56 10 c0 -12 -1 -19 -3 -17 -1 2 -9 12 -16 22 -12 14 -11
17 3 17 10 0 16 -8 16 -22z m-424 2 c17 0 24 -6 24 -20 0 -24 -6 -25 -27 -4
-9 8 -24 13 -34 11 -12 -3 -19 0 -19 10 0 10 6 13 16 9 9 -3 27 -6 40 -6z
m2774 6 c0 -3 -4 -8 -10 -11 -5 -3 -10 -1 -10 4 0 6 5 11 10 11 6 0 10 -2 10
-4z m-2840 -22 c0 -14 -3 -14 -15 -4 -8 7 -15 14 -15 16 0 2 7 4 15 4 8 0 15
-7 15 -16z m525 6 c-3 -5 -10 -10 -16 -10 -5 0 -9 5 -9 10 0 6 7 10 16 10 8 0
12 -4 9 -10z m2380 -58 c-3 -4 -11 0 -16 8 -8 11 -9 10 -4 -7 7 -27 -3 -52
-15 -33 -11 17 0 60 16 60 8 0 15 10 16 23 1 12 3 8 5 -11 3 -19 2 -37 -2 -40z
m-1680 29 c-6 -5 -25 10 -25 20 0 5 6 4 14 -3 8 -7 12 -15 11 -17z m1665 19
c0 -5 -5 -10 -11 -10 -5 0 -7 5 -4 10 3 6 8 10 11 10 2 0 4 -4 4 -10z m-2052
-20 c8 0 13 -3 9 -6 -10 -10 -48 7 -40 19 5 8 8 8 11 -1 2 -7 11 -12 20 -12z
m-363 0 c3 -5 -1 -10 -9 -10 -9 0 -16 5 -16 10 0 6 4 10 9 10 6 0 13 -4 16
-10z m175 0 c0 -5 -5 -10 -11 -10 -5 0 -7 5 -4 10 3 6 8 10 11 10 2 0 4 -4 4
-10z m430 0 c0 -5 -7 -7 -15 -4 -8 4 -15 8 -15 10 0 2 7 4 15 4 8 0 15 -4 15
-10z m3644 1 c4 -5 -3 -7 -14 -4 -23 6 -26 13 -6 13 8 0 17 -4 20 -9z m-4146
-20 c-7 -11 -16 -17 -20 -14 -10 5 10 33 23 33 5 0 4 -9 -3 -19z m142 9 c0 -5
-2 -10 -4 -10 -3 0 -8 5 -11 10 -3 6 -1 10 4 10 6 0 11 -4 11 -10z m765 1 c3
-5 1 -12 -5 -16 -5 -3 -10 1 -10 9 0 18 6 21 15 7z m-202 -8 c-7 -2 -21 -2
-30 0 -10 3 -4 5 12 5 17 0 24 -2 18 -5z m1547 -12 c0 -6 -5 -13 -10 -16 -6
-4 -8 -16 -4 -28 5 -17 4 -19 -6 -10 -14 13 -6 63 10 63 6 0 10 -4 10 -9z
m-2023 -23 c-3 -8 -6 -5 -6 6 -1 11 2 17 5 13 3 -3 4 -12 1 -19z m213 12 c0
-5 -12 -10 -27 -9 -25 0 -26 1 -8 9 27 12 35 12 35 0z m-360 -30 c0 -3 -11 -7
-25 -8 -29 -2 -32 6 -8 24 17 11 32 4 33 -16z m420 4 c0 -8 -4 -12 -10 -9 -5
3 -10 13 -10 21 0 8 5 12 10 9 6 -3 10 -13 10 -21z m84 12 c23 -11 24 -14 9
-18 -25 -7 -43 1 -43 18 0 17 1 17 34 0z m96 4 c-20 -13 -50 -13 -50 0 0 6 15
10 33 10 24 0 28 -3 17 -10z m200 -25 c-4 -5 -10 -17 -14 -25 -3 -8 -4 -2 0
14 5 27 4 28 -13 15 -10 -8 -23 -20 -29 -28 -9 -12 -12 -11 -17 3 -4 10 -1 16
7 16 7 0 21 8 32 18 13 13 22 15 30 8 7 -6 9 -15 4 -21z m-417 -2 c-7 -2 -19
-2 -25 0 -7 3 -2 5 12 5 14 0 19 -2 13 -5z m550 0 c-7 -2 -19 -2 -25 0 -7 3
-2 5 12 5 14 0 19 -2 13 -5z m537 -9 c0 -2 -7 -4 -15 -4 -8 0 -15 4 -15 10 0
5 7 7 15 4 8 -4 15 -8 15 -10z m-360 -16 c-1 -20 -2 -21 -13 -7 -7 9 -19 18
-27 22 -9 3 -4 6 13 6 22 1 27 -3 27 -21z m160 -8 c0 -5 -9 -10 -20 -10 -11 0
-20 5 -20 10 0 6 9 10 20 10 11 0 20 -4 20 -10z m-330 -4 c0 -3 -4 -8 -10 -11
-5 -3 -10 -1 -10 4 0 6 5 11 10 11 6 0 10 -2 10 -4z m1030 0 c0 -3 -4 -8 -10
-11 -5 -3 -10 -1 -10 4 0 6 5 11 10 11 6 0 10 -2 10 -4z m-360 -16 c0 -5 -4
-10 -10 -10 -5 0 -10 5 -10 10 0 6 5 10 10 10 6 0 10 -4 10 -10z m203 -17 c-7
-2 -19 -2 -25 0 -7 3 -2 5 12 5 14 0 19 -2 13 -5z m217 -33 c0 -5 -4 -10 -9
-10 -6 0 -13 5 -16 10 -3 6 1 10 9 10 9 0 16 -4 16 -10z m-151 -27 c23 -6 23
-7 5 -14 -31 -12 -54 -10 -54 6 0 16 12 18 49 8z m2351 -60 c0 -19 -3 -24 -10
-17 -6 6 -8 18 -4 27 9 24 14 21 14 -10z m1627 -59 c-3 -3 -12 -4 -19 -1 -8 3
-5 6 6 6 11 1 17 -2 13 -5z m-1540 -36 c-3 -8 -6 -5 -6 6 -1 11 2 17 5 13 3
-3 4 -12 1 -19z m53 7 c0 -8 -4 -15 -10 -15 -5 0 -10 7 -10 15 0 8 5 15 10 15
6 0 10 -7 10 -15z m220 -35 c0 -5 -7 -10 -16 -10 -8 0 -12 5 -9 10 3 6 10 10
16 10 5 0 9 -4 9 -10z m40 0 c0 -5 -5 -10 -11 -10 -5 0 -7 5 -4 10 3 6 8 10
11 10 2 0 4 -4 4 -10z m-177 -16 c-3 -15 -20 -15 -26 0 -4 9 0 13 11 12 9 -2
16 -7 15 -12z m44 10 c-3 -3 -12 -4 -19 -1 -8 3 -5 6 6 6 11 1 17 -2 13 -5z
m193 -19 c0 -8 -4 -15 -10 -15 -5 0 -10 7 -10 15 0 8 5 15 10 15 6 0 10 -7 10
-15z m450 5 c0 -5 -4 -10 -9 -10 -6 0 -13 5 -16 10 -3 6 1 10 9 10 9 0 16 -4
16 -10z m-590 -20 c0 -5 -6 -10 -14 -10 -8 0 -18 5 -21 10 -3 6 3 10 14 10 12
0 21 -4 21 -10z m480 0 c0 -5 -4 -10 -10 -10 -5 0 -10 5 -10 10 0 6 5 10 10
10 6 0 10 -4 10 -10z m50 -15 c0 -8 -4 -15 -10 -15 -5 0 -10 7 -10 15 0 8 5
15 10 15 6 0 10 -7 10 -15z m-30 -25 c0 -5 -4 -10 -10 -10 -5 0 -10 5 -10 10
0 6 5 10 10 10 6 0 10 -4 10 -10z m495 0 c3 -5 1 -10 -4 -10 -6 0 -11 5 -11
10 0 6 2 10 4 10 3 0 8 -4 11 -10z m482 -32 c-3 -8 -6 -5 -6 6 -1 11 2 17 5
13 3 -3 4 -12 1 -19z m988 12 c3 -5 1 -10 -4 -10 -6 0 -11 5 -11 10 0 6 2 10
4 10 3 0 8 -4 11 -10z m-535 -30 c0 -5 -2 -10 -4 -10 -3 0 -8 5 -11 10 -3 6
-1 10 4 10 6 0 11 -4 11 -10z m50 0 c0 -5 -5 -10 -11 -10 -5 0 -7 5 -4 10 3 6
8 10 11 10 2 0 4 -4 4 -10z m447 4 c-3 -3 -12 -4 -19 -1 -8 3 -5 6 6 6 11 1
17 -2 13 -5z m-67 -24 c0 -5 -7 -10 -16 -10 -8 0 -12 5 -9 10 3 6 10 10 16 10
5 0 9 -4 9 -10z m260 0 c0 -5 -7 -7 -15 -4 -8 4 -15 8 -15 10 0 2 7 4 15 4 8
0 15 -4 15 -10z m-950 -10 c0 -5 -5 -10 -11 -10 -5 0 -7 5 -4 10 3 6 8 10 11
10 2 0 4 -4 4 -10z m380 0 c0 -5 -2 -10 -4 -10 -2 0 -12 -3 -20 -6 -12 -5 -15
-2 -10 10 7 17 34 22 34 6z m150 0 c0 -5 -4 -10 -10 -10 -5 0 -10 5 -10 10 0
6 5 10 10 10 6 0 10 -4 10 -10z m386 -10 c9 0 12 -4 9 -10 -12 -19 -35 -10
-34 13 0 12 3 16 6 10 2 -7 11 -13 19 -13z m-789 4 c-3 -3 -12 -4 -19 -1 -8 3
-5 6 6 6 11 1 17 -2 13 -5z m118 -4 c3 -6 -1 -7 -9 -4 -18 7 -21 14 -7 14 6 0
13 -4 16 -10z m105 -29 c0 -4 -12 -8 -27 -8 -16 0 -38 -4 -50 -8 -18 -6 -23
-3 -23 9 0 13 11 16 50 16 28 0 50 -4 50 -9z m50 -1 c0 -5 -7 -10 -15 -10 -8
0 -15 5 -15 10 0 6 7 10 15 10 8 0 15 -4 15 -10z m-94 -1703 c29 -12 44 -37
23 -37 -6 0 -9 -6 -6 -13 6 -17 -29 -41 -38 -27 -4 6 -11 8 -16 4 -6 -4 -6
-11 2 -20 17 -20 -11 -28 -81 -21 -69 6 -123 33 -111 55 5 8 6 23 4 33 -7 24
28 26 47 4 15 -18 43 -19 70 -3 15 10 27 10 50 1 29 -11 30 -10 24 13 -7 28
-6 28 32 11z m74 -102 c0 -8 -4 -15 -9 -15 -13 0 -22 16 -14 24 11 11 23 6 23
-9z m348 -577 c14 -14 16 -28 2 -28 -5 0 -14 9 -20 20 -12 22 -1 27 18 8z
m-148 -46 c0 -15 -2 -15 -10 -2 -13 20 -13 33 0 25 6 -3 10 -14 10 -23z m163
-19 c65 -36 99 -80 62 -80 -8 0 -15 4 -15 9 0 4 -6 8 -14 8 -20 0 -63 37 -69
60 -6 24 -3 25 36 3z m-544 -112 c8 -5 9 -11 3 -15 -5 -3 -15 1 -22 9 -14 16
-3 20 19 6z m-5704 -51 c3 -5 1 -10 -4 -10 -6 0 -11 5 -11 10 0 6 2 10 4 10 3
0 8 -4 11 -10z m415 -12 c33 -35 36 -65 10 -88 -13 -11 -27 -20 -31 -20 -17 0
-49 44 -49 67 0 25 -19 30 -38 11 -9 -9 -12 -6 -12 13 0 35 6 39 56 39 32 0
49 -6 64 -22z m2479 -27 c7 -24 19 -42 31 -46 22 -7 18 -25 -6 -25 -9 0 -22
-7 -31 -15 -18 -18 -33 -11 -33 16 0 11 7 19 16 19 12 0 15 6 9 23 -15 48 -17
67 -8 67 6 0 15 -18 22 -39z m169 17 c2 -11 -7 -18 -28 -23 -35 -8 -56 5 -47
28 8 21 71 17 75 -5z m1052 -4 c0 -17 -22 -14 -28 4 -2 7 3 12 12 12 9 0 16
-7 16 -16z m1438 -3 c3 -8 -1 -12 -9 -9 -7 2 -15 10 -17 17 -3 8 1 12 9 9 7
-2 15 -10 17 -17z m-1312 -22 c3 -6 -6 -23 -21 -39 -27 -29 -61 -44 -69 -31
-8 13 9 29 34 32 l25 4 -25 23 -24 22 37 0 c19 0 39 -5 43 -11z m-261 -36 c5
-20 10 -24 27 -19 12 3 27 1 34 -5 7 -5 26 -14 42 -19 25 -6 32 -5 37 8 6 16
7 15 16 -1 12 -21 -9 -77 -28 -77 -7 0 -13 4 -13 9 0 4 -28 11 -61 15 -45 4
-67 12 -80 28 -23 26 -24 38 -4 38 20 0 19 10 -2 25 -9 7 -13 17 -9 23 10 17
34 3 41 -25z m1051 18 c0 -11 -4 -17 -8 -15 -4 3 -8 12 -8 20 0 8 4 14 8 14 4
0 8 -9 8 -19z m-939 -18 c-3 -3 -11 -2 -17 2 -9 6 -9 10 1 16 14 8 27 -7 16
-18z m-1057 1 c0 -8 -5 -12 -10 -9 -6 4 -8 11 -5 16 9 14 15 11 15 -7z m197
-67 c4 -29 2 -37 -10 -37 -21 0 -29 -27 -14 -50 6 -11 14 -20 18 -20 3 0 4
-13 1 -30 -5 -33 -20 -40 -28 -12 -10 32 -21 47 -35 47 -8 0 -25 4 -38 9 -18
6 -28 4 -37 -8 -22 -31 -25 2 -4 44 23 46 45 51 62 15 16 -35 32 -31 24 6 -3
19 -1 38 5 46 7 7 9 16 6 20 -4 3 -2 12 5 20 16 20 37 -3 45 -50z m1358 31
c27 -29 47 -128 25 -128 -5 0 -10 -8 -10 -17 0 -13 -3 -14 -12 -5 -14 14 -32
16 -23 3 3 -5 1 -12 -5 -16 -11 -7 -30 35 -29 63 0 12 3 11 9 -5 5 -13 12 -23
15 -23 8 0 -6 52 -17 67 -5 7 -7 21 -3 33 5 14 2 20 -9 20 -9 0 -16 7 -16 16
0 11 8 14 32 10 17 -2 36 -11 43 -18z m1835 -8 c6 -11 8 -20 6 -20 -3 0 -10 9
-16 20 -6 11 -8 20 -6 20 3 0 10 -9 16 -20z m-1203 -25 c44 -29 83 -76 83
-100 0 -7 -99 -6 -127 1 -13 4 -23 11 -23 17 0 5 -19 28 -42 50 l-43 40 33 7
c18 4 36 10 39 14 12 12 29 6 80 -29z m-3342 5 c10 -11 14 -20 9 -20 -12 1
-44 25 -44 34 0 12 17 6 35 -14z m1160 -68 c-5 -14 -9 -12 -22 11 -13 26 -13
31 4 49 18 20 18 20 21 -12 2 -17 0 -39 -3 -48z m1485 1 c-1 -67 -1 -68 -16
-40 -11 20 -13 41 -9 68 11 62 25 45 25 -28z m-4143 15 c-3 -7 -5 -2 -5 12 0
14 2 19 5 13 2 -7 2 -19 0 -25z m2441 -35 c-3 -34 -6 -38 -33 -41 -16 -2 -40
-13 -52 -24 -38 -36 -53 -8 -32 65 l10 37 55 0 55 0 -3 -37z m-908 -38 c0 -18
5 -21 23 -18 15 3 36 -6 61 -26 21 -17 46 -33 56 -36 18 -6 59 9 70 25 3 5 14
10 25 12 16 2 25 -12 53 -87 18 -49 36 -97 38 -106 6 -17 -85 -123 -138 -161
-26 -18 -34 -19 -68 -9 -31 9 -42 20 -59 56 -12 25 -26 45 -31 45 -6 0 -10 7
-10 15 0 8 -4 15 -10 15 -5 0 -10 5 -10 11 0 6 -11 20 -26 31 -14 11 -23 23
-20 26 3 3 -3 13 -14 22 -23 20 -21 32 22 101 28 46 36 79 19 79 -8 0 -31 52
-31 68 0 3 11 -5 25 -18 14 -13 25 -33 25 -45z m2344 33 c16 -22 21 -92 10
-122 -10 -25 -87 70 -78 98 15 50 43 60 68 24z m2006 -8 c0 -5 -5 -10 -11 -10
-5 0 -7 5 -4 10 3 6 8 10 11 10 2 0 4 -4 4 -10z m-4510 -19 c14 -27 13 -31
-10 -31 -15 0 -20 7 -20 25 0 30 15 33 30 6z m60 3 c0 -8 -5 -12 -10 -9 -6 4
-8 11 -5 16 9 14 15 11 15 -7z m1350 -30 c0 -14 -4 -23 -10 -19 -5 3 -10 15
-10 26 0 10 5 19 10 19 6 0 10 -12 10 -26z m82 -19 c3 -14 1 -25 -3 -25 -5 0
-9 11 -9 25 0 14 2 25 4 25 2 0 6 -11 8 -25z m-337 -33 c-8 -8 -25 10 -25 26
0 13 2 13 14 -4 8 -10 13 -21 11 -22z m1655 12 c0 -8 -5 -12 -10 -9 -6 4 -8
11 -5 16 9 14 15 11 15 -7z m-2800 -35 c0 -6 -4 -7 -10 -4 -5 3 -10 11 -10 16
0 6 5 7 10 4 6 -3 10 -11 10 -16z m2958 5 c14 -15 14 -19 1 -43 -15 -26 -59
-42 -59 -22 0 6 5 10 11 9 6 -2 14 3 16 10 3 8 -6 12 -25 12 -17 0 -33 -6 -35
-12 -3 -7 -6 -3 -6 8 -1 14 7 24 20 27 12 3 18 10 14 16 -10 18 45 13 63 -5z
m-1466 -12 c5 -16 2 -17 -18 -8 -15 7 -19 13 -11 18 18 12 24 10 29 -10z m-65
2 c-3 -3 -12 -4 -19 -1 -8 3 -5 6 6 6 11 1 17 -2 13 -5z m-2850 -63 c12 -15
24 -18 46 -14 l29 6 -32 -59 c-26 -50 -126 -203 -140 -217 -3 -3 -26 -2 -52 2
-27 5 -51 4 -57 -2 -17 -17 -68 2 -81 31 -25 56 -41 114 -38 140 3 23 9 28 43
33 22 3 57 14 78 23 29 13 42 14 52 6 16 -13 75 -4 75 11 0 17 34 58 48 59 7
0 20 -9 29 -19z m3966 4 c8 -18 -11 -31 -25 -17 -11 11 -3 32 12 32 4 0 10 -7
13 -15z m77 -4 c0 -6 -4 -13 -10 -16 -5 -3 -10 1 -10 9 0 9 5 16 10 16 6 0 10
-4 10 -9z m-1821 -58 c-7 -21 -14 -32 -17 -25 -4 14 18 75 25 68 3 -3 -1 -22
-8 -43z m-92 -44 c-5 -38 -19 -58 -39 -59 -5 0 -8 9 -8 21 0 11 -4 17 -10 14
-14 -9 -12 8 3 27 10 14 45 37 56 38 2 0 1 -19 -2 -41z m65 -31 c-7 -7 -12 -8
-12 -2 0 14 12 26 19 19 2 -3 -1 -11 -7 -17z m-37 -20 c6 -4 2 -8 -7 -8 -10 0
-18 7 -18 17 0 9 3 12 8 7 4 -5 12 -12 17 -16z m789 -44 c9 -3 16 -13 16 -21
0 -20 -34 -12 -38 10 -4 19 -1 20 22 11z"/>
<path d="M4294 9483 c3 -10 10 -57 16 -106 9 -71 8 -104 -5 -180 -22 -123 -35
-176 -53 -212 -21 -40 -25 -208 -6 -233 12 -15 13 -15 14 -1 0 9 7 22 15 29
18 15 20 50 4 50 -17 0 -4 91 15 105 9 7 18 35 22 67 5 45 4 56 -9 61 -15 6
-15 10 -1 43 8 20 13 42 10 50 -3 7 0 28 5 46 18 58 18 229 1 266 -16 33 -37
45 -28 15z"/>
<path d="M4107 9473 c-4 -3 -7 -23 -7 -44 0 -46 33 -77 79 -74 17 1 45 2 61 3
36 2 38 17 10 71 -11 22 -29 41 -42 45 -31 8 -93 8 -101 -1z"/>
<path d="M7363 8643 c9 -2 23 -2 30 0 6 3 -1 5 -18 5 -16 0 -22 -2 -12 -5z"/>
<path d="M7290 8580 c-16 -6 -6 -7 30 -3 30 3 57 7 59 9 8 7 -64 2 -89 -6z"/>
<path d="M7203 8563 c9 -2 25 -2 35 0 9 3 1 5 -18 5 -19 0 -27 -2 -17 -5z"/>
<path d="M4985 7749 c-34 -21 -29 -25 10 -7 14 6 25 15 25 20 0 10 1 10 -35
-13z"/>
<path d="M4880 7690 c-9 -6 -10 -10 -3 -10 6 0 15 5 18 10 8 12 4 12 -15 0z"/>
<path d="M3491 6989 c-2 -87 47 -311 115 -529 43 -136 194 -470 213 -470 4 0
23 -29 42 -65 18 -36 37 -65 41 -65 9 0 -20 68 -61 140 -17 30 -31 61 -31 68
0 7 -9 31 -19 55 -11 23 -23 53 -26 67 -4 14 -19 50 -32 80 -30 66 -154 428
-184 537 -12 43 -29 110 -39 148 -15 59 -19 64 -19 34z"/>
<path d="M3663 6953 c2 -5 17 -35 32 -67 16 -33 30 -55 32 -50 3 10 -55 124
-63 124 -3 0 -3 -3 -1 -7z"/>
<path d="M3940 5772 c0 -15 141 -222 151 -222 11 0 -84 158 -121 200 -16 19
-29 29 -30 22z"/>
<path d="M4752 5238 c6 -18 28 -21 28 -4 0 9 -7 16 -16 16 -9 0 -14 -5 -12
-12z"/>
<path d="M3523 5085 c0 -38 2 -53 4 -32 2 20 2 52 0 70 -2 17 -4 1 -4 -38z"/>
<path d="M3297 4995 c-4 -71 -14 -247 -22 -390 -25 -420 -65 -1051 -75 -1170
-6 -60 -9 -128 -9 -150 1 -22 5 -2 10 45 4 47 13 121 19 165 13 106 27 302 45
680 8 171 22 429 31 575 8 146 14 290 12 320 -2 36 -6 10 -11 -75z"/>
<path d="M4210 5084 c0 -18 24 -44 40 -44 31 0 24 27 -10 39 -16 5 -30 8 -30
5z"/>
<path d="M4361 5018 c-1 -30 18 -78 30 -78 4 0 11 4 14 10 3 5 20 14 38 19
l32 9 -47 13 c-28 8 -51 21 -57 33 -9 20 -10 19 -10 -6z"/>
<path d="M3492 4605 c-44 -781 -62 -1091 -72 -1234 -6 -85 -7 -148 -1 -154 5
-5 11 36 15 100 4 59 11 176 16 258 5 83 14 249 20 370 6 121 15 294 20 385
26 461 32 589 29 635 -2 28 -14 -134 -27 -360z"/>
<path d="M4493 4958 c9 -7 21 -25 26 -40 11 -30 32 -36 50 -14 9 11 3 19 -33
40 -46 27 -72 35 -43 14z"/>
<path d="M4640 4858 c0 -18 18 -34 28 -24 3 4 -2 14 -11 23 -16 16 -17 16 -17
1z"/>
<path d="M3822 4660 c0 -14 2 -19 5 -12 2 6 2 18 0 25 -3 6 -5 1 -5 -13z"/>
<path d="M3813 4405 c0 -44 2 -61 4 -37 2 23 2 59 0 80 -2 20 -4 1 -4 -43z"/>
<path d="M3806 4244 c-3 -9 -6 -64 -6 -122 -1 -59 -5 -190 -10 -292 -5 -102
-12 -237 -15 -300 -3 -63 -7 -152 -10 -197 -3 -51 -1 -83 5 -83 8 0 15 76 13
138 -1 7 3 76 7 154 5 77 11 252 15 387 3 135 8 265 11 289 5 43 1 55 -10 26z"/>
<path d="M3353 3995 c0 -27 2 -38 4 -22 2 15 2 37 0 50 -2 12 -4 0 -4 -28z"/>
<path d="M70 3960 c-13 -8 -12 -10 3 -10 9 0 17 5 17 10 0 12 -1 12 -20 0z"/>
<path d="M0 3930 c0 -18 2 -19 20 -8 17 11 22 10 30 -2 8 -13 10 -13 10 1 0
17 -19 29 -46 29 -8 0 -14 -9 -14 -20z"/>
<path d="M463 3943 c9 -2 17 -9 17 -14 0 -5 6 -9 14 -9 8 0 16 -5 18 -11 2 -7
11 -10 19 -7 17 6 -47 49 -71 47 -11 -1 -10 -3 3 -6z"/>
<path d="M595 3900 c-3 -5 -2 -10 4 -10 5 0 13 5 16 10 3 6 2 10 -4 10 -5 0
-13 -4 -16 -10z"/>
<path d="M3343 3850 c0 -36 2 -50 4 -32 2 17 2 47 0 65 -2 17 -4 3 -4 -33z"/>
<path d="M190 3889 c0 -5 5 -7 10 -4 6 3 10 8 10 11 0 2 -4 4 -10 4 -5 0 -10
-5 -10 -11z"/>
<path d="M239 3885 c-1 -5 -1 -13 0 -17 2 -12 -47 -10 -54 2 -3 6 -12 10 -18
10 -7 0 -6 -4 3 -10 10 -6 11 -10 3 -10 -7 0 -13 -4 -13 -8 0 -5 18 -7 40 -6
24 1 40 -3 40 -9 0 -8 3 -8 10 -1 7 7 7 19 1 35 -5 13 -11 20 -12 14z"/>
<path d="M388 3883 c7 -3 16 -2 19 1 4 3 -2 6 -13 5 -11 0 -14 -3 -6 -6z"/>
<path d="M475 3880 c-3 -6 1 -7 9 -4 18 7 21 14 7 14 -6 0 -13 -4 -16 -10z"/>
<path d="M847 3876 c-6 -16 2 -28 14 -20 12 7 11 34 0 34 -5 0 -11 -6 -14 -14z"/>
<path d="M28 3873 c7 -3 16 -2 19 1 4 3 -2 6 -13 5 -11 0 -14 -3 -6 -6z"/>
<path d="M880 3856 c0 -9 5 -16 10 -16 6 0 10 4 10 9 0 6 -4 13 -10 16 -5 3
-10 -1 -10 -9z"/>
<path d="M1000 3855 c0 -8 4 -15 9 -15 5 0 11 7 15 15 3 9 0 15 -9 15 -8 0
-15 -7 -15 -15z"/>
<path d="M1370 3860 c0 -5 -7 -10 -15 -10 -8 0 -15 -4 -15 -10 0 -5 -7 -10
-15 -10 -8 0 -15 -4 -15 -10 0 -13 17 -13 25 1 4 6 13 8 21 5 8 -3 14 1 14 9
0 8 5 15 10 15 6 0 10 -7 10 -15 0 -8 5 -15 10 -15 6 0 10 6 10 14 0 8 6 16
13 19 6 2 8 8 4 13 -4 5 -13 2 -18 -6 -8 -11 -12 -12 -16 -2 -6 14 -23 16 -23
2z"/>
<path d="M276 3851 c-3 -5 0 -11 8 -14 15 -6 26 1 26 15 0 11 -27 10 -34 -1z"/>
<path d="M674 3849 c-9 -16 2 -22 21 -11 15 8 16 10 1 15 -8 3 -18 2 -22 -4z"/>
<path d="M385 3830 c3 -5 8 -10 11 -10 2 0 4 5 4 10 0 6 -5 10 -11 10 -5 0 -7
-4 -4 -10z"/>
<path d="M860 3821 c0 -6 5 -13 10 -16 6 -3 10 1 10 9 0 9 -4 16 -10 16 -5 0
-10 -4 -10 -9z"/>
<path d="M1200 3815 c0 -17 2 -18 24 -9 23 9 20 24 -4 24 -11 0 -20 -7 -20
-15z"/>
<path d="M1260 3790 c-18 -12 -2 -12 25 0 13 6 15 9 5 9 -8 0 -22 -4 -30 -9z"/>
<path d="M1370 3789 c0 -5 5 -7 10 -4 6 3 10 8 10 11 0 2 -4 4 -10 4 -5 0 -10
-5 -10 -11z"/>
<path d="M1775 3790 c-17 -7 -14 -9 13 -9 20 -1 31 3 27 9 -7 12 -13 12 -40 0z"/>
<path d="M2100 3783 c0 -5 5 -15 10 -23 9 -13 11 -13 20 0 15 22 12 30 -10 30
-11 0 -20 -3 -20 -7z"/>
<path d="M1900 3770 c0 -5 5 -10 10 -10 6 0 10 5 10 10 0 6 -4 10 -10 10 -5 0
-10 -4 -10 -10z"/>
<path d="M1820 3763 c8 -3 18 -10 21 -16 4 -5 13 -6 20 -2 9 6 8 10 -7 16 -10
4 -26 8 -34 8 -13 -1 -13 -1 0 -6z"/>
<path d="M2915 3740 c-3 -5 -1 -10 4 -10 6 0 11 5 11 10 0 6 -2 10 -4 10 -3 0
-8 -4 -11 -10z"/>
<path d="M3331 3734 c0 -11 3 -14 6 -6 3 7 2 16 -1 19 -3 4 -6 -2 -5 -13z"/>
<path d="M2370 3726 c0 -9 5 -16 10 -16 6 0 10 4 10 9 0 6 -4 13 -10 16 -5 3
-10 -1 -10 -9z"/>
<path d="M1778 3723 c12 -2 32 -2 45 0 12 2 2 4 -23 4 -25 0 -35 -2 -22 -4z"/>
<path d="M2875 3720 c-3 -5 -1 -10 4 -10 6 0 11 5 11 10 0 6 -2 10 -4 10 -3 0
-8 -4 -11 -10z"/>
<path d="M2814 3709 c-5 -9 -2 -10 9 -6 9 3 18 2 21 -4 2 -5 3 -4 2 3 -3 17
-23 21 -32 7z"/>
<path d="M2508 3703 c7 -3 16 -2 19 1 4 3 -2 6 -13 5 -11 0 -14 -3 -6 -6z"/>
<path d="M4957 3641 c-3 -14 -1 -18 9 -14 16 6 18 19 5 27 -5 3 -11 -3 -14
-13z"/>
<path d="M2648 3623 c7 -3 16 -2 19 1 4 3 -2 6 -13 5 -11 0 -14 -3 -6 -6z"/>
<path d="M5970 3485 c0 -8 5 -15 10 -15 6 0 10 7 10 15 0 8 -4 15 -10 15 -5 0
-10 -7 -10 -15z"/>
<path d="M5232 3475 c-13 -16 -5 -19 22 -9 9 3 13 10 10 15 -7 13 -17 11 -32
-6z"/>
<path d="M5135 3460 c3 -5 8 -10 11 -10 2 0 4 5 4 10 0 6 -5 10 -11 10 -5 0
-7 -4 -4 -10z"/>
<path d="M5397 3454 c-12 -12 3 -22 24 -17 16 4 17 8 7 14 -16 10 -23 11 -31
3z"/>
<path d="M5970 3444 c0 -11 8 -14 27 -12 39 4 42 28 4 28 -21 0 -31 -5 -31
-16z"/>
<path d="M5455 3439 c-10 -15 3 -25 16 -12 7 7 7 13 1 17 -6 3 -14 1 -17 -5z"/>
<path d="M6170 3440 c0 -5 5 -10 10 -10 6 0 10 5 10 10 0 6 -4 10 -10 10 -5 0
-10 -4 -10 -10z"/>
<path d="M5511 3424 c0 -11 3 -14 6 -6 3 7 2 16 -1 19 -3 4 -6 -2 -5 -13z"/>
<path d="M5780 3425 c0 -8 5 -15 10 -15 6 0 10 7 10 15 0 8 -4 15 -10 15 -5 0
-10 -7 -10 -15z"/>
<path d="M6492 3418 c6 -18 28 -21 28 -4 0 9 -7 16 -16 16 -9 0 -14 -5 -12
-12z"/>
<path d="M6549 3424 c-1 -2 -2 -14 -2 -26 -1 -18 4 -22 20 -20 13 2 22 -4 26
-17 3 -14 11 -18 26 -14 12 3 21 12 21 19 0 8 7 14 15 14 8 0 15 5 15 11 0 6
-9 8 -20 4 -11 -3 -20 -2 -20 2 0 8 -79 34 -81 27z m44 -31 c-7 -2 -19 -2 -25
0 -7 3 -2 5 12 5 14 0 19 -2 13 -5z"/>
<path d="M6121 3401 c-9 -16 -8 -18 8 -14 12 3 17 11 14 19 -7 18 -10 18 -22
-5z"/>
<path d="M6195 3410 c-3 -5 -1 -10 4 -10 6 0 11 5 11 10 0 6 -2 10 -4 10 -3 0
-8 -4 -11 -10z"/>
<path d="M6231 3413 c0 -4 4 -17 9 -28 8 -19 9 -19 9 2 1 12 -3 25 -9 28 -5 3
-10 3 -9 -2z"/>
<path d="M6270 3405 c0 -5 5 -17 10 -25 5 -8 10 -10 10 -5 0 6 -5 17 -10 25
-5 8 -10 11 -10 5z"/>
<path d="M6313 3400 c2 -8 14 -17 26 -18 15 -2 21 0 16 7 -3 6 -11 8 -17 5 -6
-4 -15 0 -20 7 -8 12 -9 11 -5 -1z"/>
<path d="M6397 3385 c3 -8 9 -12 14 -9 12 7 11 11 -5 17 -10 4 -13 1 -9 -8z"/>
<path d="M6465 3380 c3 -5 12 -10 20 -10 8 0 17 5 20 10 4 6 -5 10 -20 10 -15
0 -24 -4 -20 -10z"/>
<path d="M6920 3374 c0 -8 5 -12 10 -9 6 4 8 11 5 16 -9 14 -15 11 -15 -7z"/>
<path d="M7120 3347 c0 -8 11 -19 25 -25 29 -14 33 -2 7 21 -22 20 -32 21 -32
4z"/>
<path d="M7650 3340 c0 -5 5 -10 10 -10 6 0 10 5 10 10 0 6 -4 10 -10 10 -5 0
-10 -4 -10 -10z"/>
<path d="M6690 3336 c0 -2 7 -6 15 -10 8 -3 15 -1 15 4 0 6 -7 10 -15 10 -8 0
-15 -2 -15 -4z"/>
<path d="M6975 3300 c-3 -5 1 -10 10 -10 9 0 13 5 10 10 -3 6 -8 10 -10 10 -2
0 -7 -4 -10 -10z"/>
<path d="M7122 3298 c3 -7 18 -14 34 -16 l29 -3 -29 16 c-34 18 -39 19 -34 3z"/>
<path d="M7460 3302 c0 -16 28 -47 36 -39 4 4 -2 16 -14 27 -12 12 -22 17 -22
12z"/>
<path d="M7850 3295 c-7 -9 -10 -18 -7 -21 3 -3 10 4 17 15 13 25 8 27 -10 6z"/>
<path d="M3000 3274 c0 -8 5 -12 10 -9 6 3 10 10 10 16 0 5 -4 9 -10 9 -5 0
-10 -7 -10 -16z"/>
<path d="M6750 3270 c0 -5 5 -10 10 -10 6 0 10 5 10 10 0 6 -4 10 -10 10 -5 0
-10 -4 -10 -10z"/>
<path d="M7876 3261 c-4 -7 -5 -15 -2 -18 9 -9 19 4 14 18 -4 11 -6 11 -12 0z"/>
<path d="M7455 3240 c-3 -5 1 -10 9 -10 9 0 16 5 16 10 0 6 -4 10 -9 10 -6 0
-13 -4 -16 -10z"/>
<path d="M373 971 c7 -55 -2 -64 -39 -36 -36 27 -61 18 -121 -45 -54 -56 -61
-60 -106 -62 -26 -1 -53 4 -59 10 -7 7 -20 12 -30 12 -15 0 -18 -9 -18 -64 0
-36 5 -68 10 -71 14 -9 12 -68 -2 -84 -11 -11 -10 -13 3 -8 9 3 22 1 30 -4 12
-7 12 -9 0 -9 -37 0 -40 -27 -41 -323 l0 -288 135 3 c120 2 135 4 135 20 0 24
15 31 30 13 11 -14 15 -14 31 1 17 15 18 15 25 -10 l6 -26 154 0 c92 0 154 4
154 10 0 14 -32 28 -78 34 -39 5 -72 24 -72 42 0 4 -7 16 -17 26 -15 17 -14
18 24 18 27 0 43 5 47 15 3 8 11 14 18 13 20 -4 18 49 -2 67 -15 14 -16 21 -6
50 7 19 15 38 19 41 4 4 7 15 7 25 0 9 7 19 15 23 8 3 15 2 15 -3 0 -5 12 -20
27 -35 22 -22 32 -25 60 -20 26 5 37 2 46 -11 16 -21 64 -11 72 15 7 24 43 36
58 21 16 -16 11 -150 -6 -167 -4 -5 -5 0 -1 11 5 15 4 17 -4 10 -9 -8 -9 -21
-1 -49 l11 -38 25 23 c24 22 25 22 15 3 -6 -11 -18 -26 -26 -34 -9 -7 -16 -20
-16 -30 0 -10 -7 -23 -15 -30 -8 -7 -15 -16 -15 -21 0 -13 527 -11 535 2 4 5
4 21 1 33 -5 22 -11 23 -83 25 -43 1 -102 6 -131 12 -48 10 -53 13 -49 32 21
88 21 96 -12 114 -39 23 -39 33 -2 33 36 0 42 9 58 80 21 93 27 157 14 164 -8
5 -8 13 -1 27 12 22 6 39 -16 39 -17 0 -17 5 -2 29 9 14 8 23 -5 42 -22 31
-21 55 2 88 l20 27 -92 31 c-102 35 -132 40 -163 30 -12 -4 -39 -10 -60 -12
-31 -4 -48 -15 -84 -55 -53 -59 -71 -62 -128 -20 -23 17 -42 27 -42 24 0 -4
-8 0 -17 8 -25 21 -48 28 -64 18 -11 -7 -11 -17 -1 -55 7 -25 12 -50 12 -55 0
-12 -20 -13 -38 -2 -14 10 -42 109 -42 153 0 26 -3 29 -26 27 -16 -2 -31 4
-37 14 -14 22 -2 35 17 19 19 -16 23 3 16 78 l-5 56 -39 3 -39 3 6 -50z m675
-223 c15 -15 16 -64 1 -73 -13 -9 -49 23 -49 45 0 16 18 40 30 40 3 0 11 -5
18 -12z m-647 -80 c-13 -10 -31 -18 -40 -18 -11 0 -7 7 14 24 16 13 34 22 39
18 5 -3 -1 -13 -13 -24z m630 -31 c0 -7 4 -2 9 11 5 12 14 22 19 22 13 0 28
-65 26 -110 -1 -19 -3 -48 -3 -64 -2 -25 -4 -27 -18 -15 -9 7 -29 12 -45 11
-61 -7 -88 39 -68 114 13 48 35 67 60 53 11 -5 19 -15 20 -22z m-214 -66 c-9
-15 -14 -31 -10 -34 11 -12 -18 -36 -35 -30 -18 7 -32 22 -32 36 0 4 16 24 36
44 26 26 39 32 47 24 8 -8 7 -19 -6 -40z m47 -16 c-4 -8 -8 -15 -10 -15 -2 0
-4 7 -4 15 0 8 4 15 10 15 5 0 7 -7 4 -15z m-87 -90 c18 -6 21 -11 13 -26 -6
-10 -17 -16 -24 -13 -11 4 -13 0 -9 -15 4 -15 1 -21 -10 -21 -21 0 -31 18 -18
33 6 8 6 18 1 27 -20 31 -11 33 47 15z m300 -127 c-6 -45 -11 -53 -26 -43 -14
8 -14 51 0 76 16 31 32 11 26 -33z m-607 -230 c0 -7 -10 -24 -21 -38 l-20 -25
7 25 c6 24 22 50 30 50 2 0 4 -6 4 -12z m474 -34 c4 -9 4 -19 1 -22 -3 -3 -5
1 -5 8 0 7 -3 10 -6 7 -4 -4 -1 -13 6 -22 16 -19 10 -26 -17 -19 -13 4 -20 12
-17 20 2 8 6 21 9 29 6 20 21 19 29 -1z"/>
<path d="M1328 953 c-26 -31 -48 -72 -48 -88 0 -40 42 4 55 58 4 15 11 27 16
27 5 0 9 5 9 10 0 15 -15 12 -32 -7z"/>
<path d="M1406 932 c-3 -9 -10 -26 -15 -38 -8 -19 -6 -20 16 -16 17 3 30 -1
39 -12 8 -12 14 -14 19 -6 12 19 -3 57 -29 73 -22 15 -24 15 -30 -1z"/>
<path d="M524 876 c-15 -12 -17 -18 -8 -33 14 -23 49 -31 41 -9 -3 8 0 22 8
30 26 26 -8 36 -41 12z"/>
<path d="M1346 833 c-14 -15 -31 -41 -37 -57 -7 -17 -23 -43 -37 -58 -19 -21
-22 -29 -11 -33 104 -37 122 -38 133 -8 4 9 0 23 -7 32 -17 19 -30 84 -20 95
8 8 16 56 9 56 -3 0 -16 -12 -30 -27z"/>
<path d="M7924 416 c5 -39 12 -53 21 -44 3 2 -2 22 -10 44 l-15 39 4 -39z"/>
<path d="M826 234 c8 -37 21 -51 33 -39 6 6 0 21 -15 39 l-25 28 7 -28z"/>
<path d="M884 235 c-11 -27 2 -37 14 -11 7 16 8 26 1 26 -5 0 -12 -7 -15 -15z"/>
<path d="M4552 208 c-16 -16 -15 -28 3 -28 8 0 15 9 15 20 0 23 -2 24 -18 8z"/>
</g>
</svg>
